<svg xmlns="http://www.w3.org/2000/svg" width="1200" height="630" viewBox="0 0 1200 630" role="img" aria-labelledby="title desc">
  <title id="title">Andrej Glavnik analytics operations portfolio</title>
  <desc id="desc">Open Graph card for Andrej Glavnik focused on analytics operations and dashboard governance.</desc>
  <rect width="1200" height="630" fill="#f7f8fb"/>
  <rect x="68" y="70" width="1064" height="490" rx="18" fill="#ffffff" stroke="#dce3ea" stroke-width="2"/>
  <rect x="108" y="110" width="62" height="62" rx="14" fill="#111827"/>
  <text x="139" y="149" text-anchor="middle" font-family="Arial, sans-serif" font-size="20" font-weight="700" fill="#ffffff">AG</text>
  <text x="108" y="245" font-family="Arial, sans-serif" font-size="58" font-weight="800" fill="#111827">Analytics Operations</text>
  <text x="108" y="314" font-family="Arial, sans-serif" font-size="58" font-weight="800" fill="#111827">&amp; Dashboard Governance</text>
  <text x="108" y="370" font-family="Arial, sans-serif" font-size="25" fill="#526071">GA4 QA · Datorama · KPI Frameworks · BI Delivery</text>
  <rect x="108" y="430" width="318" height="54" rx="10" fill="#0b4f8a"/>
  <text x="267" y="465" text-anchor="middle" font-family="Arial, sans-serif" font-size="20" font-weight="700" fill="#ffffff">andrejglavnik.github.io</text>
  <rect x="770" y="152" width="270" height="190" rx="16" fill="#111827"/>
  <rect x="800" y="186" width="92" height="70" rx="8" fill="#20314d"/>
  <polyline points="816,238 834,224 852,232 870,202" fill="none" stroke="#37b6ab" stroke-width="7" stroke-linecap="round"/>
  <rect x="916" y="190" width="84" height="16" rx="8" fill="#2a3d5c"/>
  <rect x="916" y="224" width="108" height="16" rx="8" fill="#37b6ab"/>
  <rect x="916" y="258" width="78" height="16" rx="8" fill="#2a3d5c"/>
  <rect x="790" y="390" width="270" height="88" rx="12" fill="#eef4f8" stroke="#dce3ea"/>
  <circle cx="830" cy="434" r="18" fill="#168c86"/>
  <path d="M821 434l7 8 15-18" fill="none" stroke="#fff" stroke-width="5" stroke-linecap="round" stroke-linejoin="round"/>
  <rect x="866" y="418" width="150" height="12" rx="6" fill="#cbd5df"/>
  <rect x="866" y="448" width="118" height="12" rx="6" fill="#cbd5df"/>
</svg>
